Coordinates
version=1
nRows=8
nColumns=40
inDegrees=yes

Units are S.I. units (second, meters, Newtons, ...)
If the header above contains a line with 'inDegrees', this indicates whether rotational values are in degrees (yes) or radians (no).

endheader
time	pelvis_tilt	pelvis_list	pelvis_rotation	pelvis_tx	pelvis_ty	pelvis_tz	hip_flexion_r	hip_adduction_r	hip_rotation_r	knee_angle_r	knee_angle_r_beta	ankle_angle_r	subtalar_angle_r	mtp_angle_r	hip_flexion_l	hip_adduction_l	hip_rotation_l	knee_angle_l	knee_angle_l_beta	ankle_angle_l	subtalar_angle_l	mtp_angle_l	lumbar_extension	lumbar_bending	lumbar_rotation	arm_flex_r	arm_add_r	arm_rot_r	elbow_flex_r	pro_sup_r	wrist_flex_r	wrist_dev_r	arm_flex_l	arm_add_l	arm_rot_l	elbow_flex_l	pro_sup_l	wrist_flex_l	wrist_dev_l
      3.14500000	    -33.25912366	      0.98838420	      6.41339120	     -0.41524647	      0.59607824	     -0.90020009	     98.21026773	    -13.87530678	      8.28324485	    109.74094601	      1.91534083	     44.56552157	      0.00000000	      0.00000000	     98.14086158	    -13.39970546	      0.87771504	    108.03634652	      1.88558996	     42.42822895	      0.00000000	      0.00000000	    -23.84151696	     -1.77001143	     -6.85601474	     -5.60661047	    -44.27512024	     56.41479908	     81.35583547	     87.87128547	      0.00000000	      0.00000000	    -25.51695570	    -40.78240400	     35.08621181	     84.89029172	     87.83424016	      0.00000000	      0.00000000
      3.15000000	    -33.35000683	      1.06270965	      6.41186741	     -0.41537238	      0.59581499	     -0.90033126	     98.36670844	    -13.87414714	      8.40366827	    109.75887714	      1.91565379	     44.52666528	      0.00000000	      0.00000000	     98.21568468	    -13.38311829	      0.79261888	    108.04457727	      1.88573361	     42.43089567	      0.00000000	      0.00000000	    -23.75467798	     -1.84096178	     -6.47462570	     -6.49851501	    -44.21568407	     55.36540826	     81.47372886	     87.91073478	      0.00000000	      0.00000000	    -24.80478584	    -41.05759676	     35.95567666	     84.81047086	     87.85762133	      0.00000000	      0.00000000
      3.15500000	    -33.26454192	      1.04280516	      6.54436126	     -0.41530428	      0.59583310	     -0.90069889	     98.26473138	    -14.04622258	      8.39983487	    109.80449531	      1.91644998	     44.68334715	      0.00000000	      0.00000000	     98.14400371	    -13.21481181	      0.79551619	    108.07083138	      1.88619183	     42.42309303	      0.00000000	      0.00000000	    -23.85978140	     -1.73585967	     -6.53138539	     -6.63595968	    -44.22532289	     55.13403764	     81.53008614	     87.86152647	      0.00000000	      0.00000000	    -24.73525833	    -41.04247601	     35.96233214	     84.76976575	     87.79420904	      0.00000000	      0.00000000
      3.16000000	    -33.30562120	      1.04099574	      6.43817785	     -0.41535806	      0.59560650	     -0.90051286	     98.33036658	    -13.90581384	      8.40647882	    109.80967350	      1.91654035	     44.56696032	      0.00000000	      0.00000000	     98.21038132	    -13.34720762	      0.82212868	    108.10101746	      1.88671868	     42.45433115	      0.00000000	      0.00000000	    -23.79492520	     -1.78836185	     -6.48951209	     -6.47470796	    -44.24774120	     55.42150423	     81.49662642	     87.88295789	      0.00000000	      0.00000000	    -24.80170671	    -41.07083035	     35.97786463	     84.82839519	     87.82386178	      0.00000000	      0.00000000
      3.16500000	    -33.46794211	      1.04758962	      6.44415868	     -0.41560694	      0.59525151	     -0.90062034	     98.52912054	    -13.90077042	      8.44857962	    109.78051639	      1.91603147	     44.71446451	      0.00000000	      0.00000000	     98.39275853	    -13.31102190	      0.80619638	    108.07504835	      1.88626543	     42.49798959	      0.00000000	      0.00000000	    -23.61278148	     -1.80375550	     -6.43588505	     -6.56786680	    -44.29780231	     55.39669316	     81.66755037	     87.82506359	      0.00000000	      0.00000000	    -24.77468275	    -41.10741798	     35.99860656	     84.95887139	     87.74128018	      0.00000000	      0.00000000
      3.17000000	    -33.29249126	      0.97990523	      6.35473081	     -0.41536704	      0.59539061	     -0.90036249	     98.31664034	    -13.78618116	      8.35131826	    109.80896643	      1.91652801	     44.58287303	      0.00000000	      0.00000000	     98.25471404	    -13.45566077	      0.90303843	    108.14525673	      1.88749080	     42.31061524	      0.00000000	      0.00000000	    -23.76979429	     -1.77765897	     -7.28062755	     -4.46185905	    -44.42798402	     57.91973030	     81.33934548	     87.86271998	      0.00000000	      0.00000000	    -26.27401633	    -40.44376866	     34.13992498	     84.87291376	     87.86752338	      0.00000000	      0.00000000
      3.17500000	    -33.38646398	      1.00576480	      6.33085356	     -0.41553141	      0.59512225	     -0.90033697	     98.46299249	    -13.74675790	      8.40735024	    109.83686869	      1.91701500	     44.52502405	      0.00000000	      0.00000000	     98.35207450	    -13.47247620	      0.86164547	    108.15695417	      1.88769496	     42.37296829	      0.00000000	      0.00000000	    -23.68607071	     -1.82374811	     -6.85050731	     -5.45749019	    -44.32112347	     56.67096147	     81.41745622	     87.88355755	      0.00000000	      0.00000000	    -25.62819956	    -40.75037711	     34.90314057	     84.86246241	     87.88109733	      0.00000000	      0.00000000
      3.18000000	    -33.48140210	      1.05833907	      6.29746343	     -0.41573490	      0.59480040	     -0.90031805	     98.61160150	    -13.68881793	      8.48870586	    109.85288981	      1.91729462	     44.51497280	      0.00000000	      0.00000000	     98.46266641	    -13.50897868	      0.82076537	    108.17360023	      1.88798549	     42.37043099	      0.00000000	      0.00000000	    -23.55484981	     -1.90670649	     -7.28288407	     -4.45667109	    -44.41976433	     57.97020684	     81.36698297	     87.86312811	      0.00000000	      0.00000000	    -26.35785781	    -40.48578342	     34.07554309	     84.90828726	     87.87073904	      0.00000000	      0.00000000
